<svg width="92" height="92" viewBox="0 0 92 92" fill="none" xmlns="http://www.w3.org/2000/svg">
<path d="M71.5733 23C73.543 23 75.432 23.7786 76.8248 25.1645C78.2177 26.5505 79.0001 28.4302 79.0001 30.3902V61.6098C79.0001 63.5698 78.2177 65.4495 76.8248 66.8355C75.432 68.2214 73.543 69 71.5733 69H20.427C19.4517 69 18.4859 68.8088 17.5848 68.4375C16.6838 68.0661 15.865 67.5217 15.1754 66.8355C14.4858 66.1492 13.9387 65.3345 13.5655 64.4379C13.1922 63.5413 13.0001 62.5803 13.0001 61.6098V30.3902C13.0001 28.4302 13.7826 26.5505 15.1754 25.1645C16.5682 23.7786 18.4573 23 20.427 23H71.5733ZM71.5733 27.9268H20.427C19.7704 27.9268 19.1407 28.1863 18.6765 28.6483C18.2122 29.1103 17.9514 29.7369 17.9514 30.3902V61.6098C17.9514 62.9696 19.0604 64.0732 20.427 64.0732H71.5733C72.2298 64.0732 72.8595 63.8137 73.3238 63.3517C73.7881 62.8897 74.0489 62.2631 74.0489 61.6098V30.3902C74.0489 29.7369 73.7881 29.1103 73.3238 28.6483C72.8595 28.1863 72.2298 27.9268 71.5733 27.9268ZM28.679 54.2031H63.3377C63.9649 54.2033 64.5687 54.4404 65.027 54.8665C65.4854 55.2926 65.7641 55.876 65.8068 56.4986C65.8496 57.1213 65.6532 57.737 65.2574 58.2211C64.8615 58.7053 64.2958 59.0219 63.6744 59.107L63.3377 59.13H28.679C28.0518 59.1298 27.448 58.8927 26.9897 58.4666C26.5314 58.0405 26.2527 57.4571 26.2099 56.8345C26.1672 56.2118 26.3636 55.5961 26.7594 55.112C27.1552 54.6278 27.721 54.3112 28.3424 54.2261L28.679 54.2031H63.3377H28.679ZM60.8621 42.7072C61.7375 42.7072 62.5771 43.0533 63.1961 43.6693C63.8152 44.2852 64.1629 45.1207 64.1629 45.9918C64.1629 46.8629 63.8152 47.6983 63.1961 48.3143C62.5771 48.9303 61.7375 49.2763 60.8621 49.2763C59.9867 49.2763 59.1471 48.9303 58.528 48.3143C57.909 47.6983 57.5613 46.8629 57.5613 45.9918C57.5613 45.1207 57.909 44.2852 58.528 43.6693C59.1471 43.0533 59.9867 42.7072 60.8621 42.7072ZM41.0736 42.7072C41.9491 42.7072 42.7887 43.0533 43.4077 43.6693C44.0267 44.2852 44.3745 45.1207 44.3745 45.9918C44.3745 46.8629 44.0267 47.6983 43.4077 48.3143C42.7887 48.9303 41.9491 49.2763 41.0736 49.2763C40.1982 49.2763 39.3586 48.9303 38.7396 48.3143C38.1206 47.6983 37.7728 46.8629 37.7728 45.9918C37.7728 45.1207 38.1206 44.2852 38.7396 43.6693C39.3586 43.0533 40.1982 42.7072 41.0736 42.7072ZM31.1712 42.7072C32.0466 42.7072 32.8862 43.0533 33.5052 43.6693C34.1242 44.2852 34.472 45.1207 34.472 45.9918C34.472 46.8629 34.1242 47.6983 33.5052 48.3143C32.8862 48.9303 32.0466 49.2763 31.1712 49.2763C30.2957 49.2763 29.4562 48.9303 28.8371 48.3143C28.2181 47.6983 27.8703 46.8629 27.8703 45.9918C27.8703 45.1207 28.2181 44.2852 28.8371 43.6693C29.4562 43.0533 30.2957 42.7072 31.1712 42.7072ZM50.9761 42.7072C51.8515 42.7072 52.6911 43.0533 53.3102 43.6693C53.9292 44.2852 54.2769 45.1207 54.2769 45.9918C54.2769 46.8629 53.9292 47.6983 53.3102 48.3143C52.6911 48.9303 51.8515 49.2763 50.9761 49.2763C50.1007 49.2763 49.2611 48.9303 48.6421 48.3143C48.0231 47.6983 47.6753 46.8629 47.6753 45.9918C47.6753 45.1207 48.0231 44.2852 48.6421 43.6693C49.2611 43.0533 50.1007 42.7072 50.9761 42.7072ZM26.2034 32.8536C27.0789 32.8536 27.9184 33.1997 28.5375 33.8156C29.1565 34.4316 29.5042 35.2671 29.5042 36.1382C29.5042 37.0093 29.1565 37.8447 28.5375 38.4607C27.9184 39.0767 27.0789 39.4227 26.2034 39.4227C25.328 39.4227 24.4884 39.0767 23.8694 38.4607C23.2504 37.8447 22.9026 37.0093 22.9026 36.1382C22.9026 35.2671 23.2504 34.4316 23.8694 33.8156C24.4884 33.1997 25.328 32.8536 26.2034 32.8536ZM36.0894 32.8536C36.9648 32.8536 37.8044 33.1997 38.4234 33.8156C39.0425 34.4316 39.3902 35.2671 39.3902 36.1382C39.3902 37.0093 39.0425 37.8447 38.4234 38.4607C37.8044 39.0767 36.9648 39.4227 36.0894 39.4227C35.214 39.4227 34.3744 39.0767 33.7554 38.4607C33.1363 37.8447 32.7886 37.0093 32.7886 36.1382C32.7886 35.2671 33.1363 34.4316 33.7554 33.8156C34.3744 33.1997 35.214 32.8536 36.0894 32.8536ZM45.9919 32.8536C46.8673 32.8536 47.7069 33.1997 48.3259 33.8156C48.9449 34.4316 49.2927 35.2671 49.2927 36.1382C49.2927 37.0093 48.9449 37.8447 48.3259 38.4607C47.7069 39.0767 46.8673 39.4227 45.9919 39.4227C45.1164 39.4227 44.2769 39.0767 43.6578 38.4607C43.0388 37.8447 42.691 37.0093 42.691 36.1382C42.691 35.2671 43.0388 34.4316 43.6578 33.8156C44.2769 33.1997 45.1164 32.8536 45.9919 32.8536ZM55.8943 32.8536C56.7698 32.8536 57.6094 33.1997 58.2284 33.8156C58.8474 34.4316 59.1952 35.2671 59.1952 36.1382C59.1952 37.0093 58.8474 37.8447 58.2284 38.4607C57.6094 39.0767 56.7698 39.4227 55.8943 39.4227C55.0189 39.4227 54.1793 39.0767 53.5603 38.4607C52.9413 37.8447 52.5935 37.0093 52.5935 36.1382C52.5935 35.2671 52.9413 34.4316 53.5603 33.8156C54.1793 33.1997 55.0189 32.8536 55.8943 32.8536ZM65.7968 32.8536C66.6723 32.8536 67.5118 33.1997 68.1309 33.8156C68.7499 34.4316 69.0976 35.2671 69.0976 36.1382C69.0976 37.0093 68.7499 37.8447 68.1309 38.4607C67.5118 39.0767 66.6723 39.4227 65.7968 39.4227C64.9214 39.4227 64.0818 39.0767 63.4628 38.4607C62.8438 37.8447 62.496 37.0093 62.496 36.1382C62.496 35.2671 62.8438 34.4316 63.4628 33.8156C64.0818 33.1997 64.9214 32.8536 65.7968 32.8536Z" fill="#EC7979"/>
<circle cx="46.0001" cy="46" r="45.5" stroke="#EC7979"/>
</svg>
